<?xml version="1.0" standalone="no"?>
<!DOCTYPE svg PUBLIC "-//W3C//DTD SVG 20010904//EN"
 "http://www.w3.org/TR/2001/REC-SVG-20010904/DTD/svg10.dtd">
<svg version="1.0" xmlns="http://www.w3.org/2000/svg"
 width="200.000000pt" height="200.000000pt" viewBox="0 0 200.000000 200.000000"
 preserveAspectRatio="xMidYMid meet">

<g transform="translate(0.000000,200.000000) scale(0.100000,-0.100000)"
fill="#000000" stroke="none">
<path d="M29 1971 l-29 -29 0 -942 0 -942 29 -29 29 -29 942 0 942 0 29 29 29
29 0 942 0 942 -29 29 -29 29 -942 0 -942 0 -29 -29z m961 -453 c55 -28 83
-76 77 -133 -3 -30 -65 -146 -241 -450 -131 -226 -247 -420 -259 -433 -35 -38
-88 -48 -142 -28 -81 32 -116 116 -77 192 49 96 466 811 485 832 20 21 62 39
97 41 9 1 36 -9 60 -21z m590 6 c70 -28 106 -107 77 -175 -22 -54 -467 -821
-490 -847 -49 -53 -153 -48 -201 9 -31 36 -40 69 -33 113 6 35 463 834 499
873 20 21 62 40 95 42 7 1 31 -6 53 -15z"/>
</g>
</svg>
